<?xml version="1.0" encoding="utf-8"?>
<!-- Generator: Adobe Illustrator 27.9.0, SVG Export Plug-In . SVG Version: 6.00 Build 0)  -->
<svg version="1.1" id="Layer_1" xmlns="http://www.w3.org/2000/svg" xmlns:xlink="http://www.w3.org/1999/xlink" x="0px" y="0px"
	 viewBox="0 0 90.2 93.1" style="enable-background:new 0 0 90.2 93.1;" xml:space="preserve">
<style type="text/css">
	.st0{fill:#FFFFFF;}
	.st1{fill:url(#SVGID_1_);}
	.st2{fill:#717070;}
	.st3{fill:url(#SVGID_00000134930598986535300380000010676892183072663446_);}
	.st4{fill:url(#SVGID_00000132778549519672860330000011743564253042009787_);}
</style>
<linearGradient id="SVGID_1_" gradientUnits="userSpaceOnUse" x1="23.2265" y1="83.4085" x2="63.4393" y2="15.6213">
	<stop  offset="0" style="stop-color:#1370B8"/>
	<stop  offset="1" style="stop-color:#36B3E8"/>
</linearGradient>
<path class="st1" d="M75.9,62.3l14.2-6.4v14.9c0,1.6-1.2,3.5-2.7,4.2l-11.5,5.1V62.3z M47.8,75c-1.5,0.7-2.7-0.1-2.7-1.8v-12
	c0-1.6,1.2-3.5,2.7-4.2l11.8-5.3V36.3c0-1.6,1.2-3.5,2.7-4.2l11-5c1.5-0.7,2.7,0.1,2.7,1.7v15.5l14.2-6.4V22.4
	c0-1.6-1.2-3.5-2.7-4.2L47.8,0.5c-1.5-0.7-3.9-0.7-5.4,0L2.7,18.2C1.2,18.9,0,20.7,0,22.4v48.4c0,1.6,1.2,3.5,2.7,4.2l39.6,17.7
	c1.5,0.7,3.9,0.7,5.4,0l11.7-5.2V69.7L47.8,75z"/>
</svg>
