<?xml version="1.0" encoding="utf-8"?>
<!-- Generator: Adobe Illustrator 27.9.0, SVG Export Plug-In . SVG Version: 6.00 Build 0)  -->
<svg version="1.1" id="Layer_1" xmlns="http://www.w3.org/2000/svg" xmlns:xlink="http://www.w3.org/1999/xlink" x="0px" y="0px"
	 viewBox="0 0 540.2 94.7" style="enable-background:new 0 0 540.2 94.7;" xml:space="preserve">
<style type="text/css">
	.st0{fill:#FFFFFF;}
	.st1{fill:url(#SVGID_1_);}
	.st2{fill:#717070;}
	.st3{fill:url(#SVGID_00000046333544219322967260000008504060905727442058_);}
	.st4{fill:url(#SVGID_00000048459947350536421290000007536698125523833741_);}
</style>
<g>
	<g>
		<path class="st2" d="M136.5,73.5c-2.9,0-5.4-0.6-7.5-1.9c-2.1-1.3-3.7-3-4.8-5c-1.1-2-1.7-4.2-1.7-6.6c0-3.1,0.8-5.7,2.3-7.8
			s3.5-3.8,5.9-5.1c2.4-1.3,4.9-2.2,7.6-2.8c2.7-0.6,5.1-0.9,7.4-0.9c0.4,0,1.2,0,2.2,0.1c1,0.1,2,0.2,3,0.3c1,0.1,1.7,0.2,2.1,0.2
			l0-6.6c0-3.4-0.8-5.7-2.5-7c-1.7-1.3-3.9-1.9-6.5-1.9c-1.5,0-3.1,0.3-4.6,0.8c-1.5,0.5-3,1.2-4.4,2c-1.4,0.8-2.7,1.6-3.9,2.4
			c-1.2,0.8-2.2,1.5-3,2h-1.8l-0.3-8.8c1.7-0.7,3.5-1.3,5.3-1.9c1.8-0.6,3.8-1.1,5.9-1.5c2.1-0.4,4.6-0.6,7.3-0.6
			c2.9,0,5.7,0.4,8.4,1.3c2.7,0.9,4.8,2.4,6.6,4.6c1.7,2.2,2.5,5.4,2.5,9.6L162,63.3c0,1.1,0.4,2,1.3,2.7c0.9,0.7,1.9,1.1,2.9,1.1
			c0.6,0,1.3-0.1,2.1-0.4c0.8-0.3,1.6-0.6,2.3-0.9h0.7v3.8c-0.6,0.4-1.4,0.9-2.5,1.6c-1.1,0.6-2.2,1.2-3.4,1.7
			c-1.2,0.5-2.3,0.7-3.2,0.7c-2.8,0-4.9-0.7-6.3-2c-1.4-1.3-2.1-3.4-2.1-6.2h-0.6c-1.6,2.3-3.5,4.1-5.5,5.3c-2,1.2-4,1.9-6,2.3
			C139.8,73.3,138,73.5,136.5,73.5z M140.9,67c1.9,0,4.1-0.4,6.6-1.2c2.4-0.8,4.3-2.1,5.6-3.9V48.3c-4.2,0-7.8,0.3-11,0.8
			c-3.1,0.5-5.6,1.5-7.3,2.9c-1.8,1.4-2.6,3.5-2.6,6.3c0,2.2,0.4,4,1.3,5.3c0.9,1.3,2,2.1,3.4,2.6C138.2,66.7,139.6,67,140.9,67z"/>
		<path class="st2" d="M175.5,94.7v-3.3l5.7-1.8c0.5-0.2,1-0.4,1.3-0.7c0.3-0.3,0.5-0.8,0.5-1.4V33.5c0-0.7-0.2-1.2-0.5-1.5
			c-0.4-0.4-0.8-0.6-1.4-0.9l-5.3-2.2v-3.2l15.4-2.5v8h0.6c1.4-2.1,3-3.8,4.7-5c1.7-1.2,3.6-2.1,5.5-2.6c1.9-0.5,3.8-0.8,5.7-0.8
			c4,0,7.4,1,10.3,3.1c2.9,2,5.1,4.8,6.6,8.3c1.5,3.5,2.3,7.5,2.3,11.9c0,4.9-0.9,9.4-2.8,13.5c-1.8,4.1-4.5,7.3-7.9,9.7
			c-3.4,2.4-7.5,3.6-12.3,3.6c-2.8,0-5.2-0.5-7.2-1.5c-2-1-3.6-2.1-4.8-3.3v2.1v17c0,0.6,0.2,1.1,0.5,1.4c0.4,0.3,0.8,0.5,1.3,0.7
			l7,1.9v3.3H175.5z M191.9,34.7V65c0.9,0.6,2,1,3.4,1.4c1.4,0.4,2.7,0.6,4,0.8c1.3,0.2,2.4,0.2,3.2,0.2c3.4,0,6.1-0.8,8.3-2.5
			c2.2-1.6,3.8-3.8,4.8-6.6c1.1-2.7,1.6-5.7,1.6-9c0-3.7-0.5-7.1-1.5-10.1c-1-3-2.6-5.4-4.8-7.1c-2.2-1.8-4.9-2.6-8.4-2.6
			c-2.1,0-4.1,0.4-6,1.3C194.7,31.7,193.1,33,191.9,34.7z"/>
		<path class="st2" d="M234.4,72.5v-3.3l6.8-1.8c0.5-0.1,0.9-0.4,1.3-0.7c0.3-0.3,0.5-0.8,0.5-1.5V12c0-0.7-0.2-1.2-0.6-1.5
			s-0.9-0.6-1.4-0.9L234.1,7V3.9L251.9,3v62.2c0,0.6,0.2,1.1,0.6,1.5c0.4,0.3,0.8,0.6,1.3,0.7l6.6,1.8v3.3H234.4z"/>
		<path class="st2" d="M267.1,72.5v-3.3l6.8-1.8c0.5-0.1,1-0.4,1.3-0.7c0.3-0.3,0.5-0.8,0.5-1.5V33.9c0-0.7-0.2-1.2-0.5-1.5
			c-0.4-0.3-0.8-0.6-1.4-0.8l-6.6-2.2v-3.2l17.5-2.4v41.5c0,0.6,0.2,1.1,0.5,1.5c0.3,0.4,0.8,0.6,1.2,0.7l6.7,1.8v3.3H267.1z
			 M279.4,14.7c-1.1,0-2.2-0.2-3.2-0.7c-1-0.5-1.8-1.1-2.4-2c-0.6-0.9-0.9-1.9-0.9-3.1c0-1.9,0.6-3.4,1.9-4.4s2.8-1.5,4.5-1.5
			c2,0,3.6,0.5,4.9,1.4c1.2,1,1.9,2.4,1.9,4.2c0,1.3-0.3,2.4-0.9,3.3c-0.6,0.9-1.4,1.6-2.4,2.1C281.9,14.5,280.7,14.7,279.4,14.7z"
			/>
		<path class="st2" d="M299.3,72.5v-3.3l5.4-1.8c0.6-0.2,1-0.4,1.3-0.8c0.3-0.3,0.5-0.8,0.5-1.4V12c0-0.7-0.2-1.2-0.6-1.5
			c-0.4-0.4-0.8-0.6-1.3-0.9L298.9,7V3.9L315.5,3v45.4l19-18.5l-5-2.6v-3.2h19.6v3.2l-5.5,1.9c-0.6,0.2-1.2,0.5-1.8,0.9
			c-0.6,0.4-1.1,0.8-1.7,1.3l-12.3,11.2L344,65.4c0.3,0.4,0.8,0.9,1.3,1.3c0.6,0.4,1.1,0.7,1.7,0.9l4.7,1.7v3.3h-19.9v-3.3l3-2
			l-13.4-18.4l-6.1,2.4v14c0,0.6,0.2,1.1,0.5,1.4c0.3,0.3,0.8,0.6,1.2,0.8l4.6,1.8v3.3H299.3z"/>
		<path class="st2" d="M371.2,73.5c-2.9,0-5.4-0.6-7.5-1.9c-2.1-1.3-3.7-3-4.8-5c-1.1-2-1.7-4.2-1.7-6.6c0-3.1,0.8-5.7,2.3-7.8
			c1.5-2.1,3.5-3.8,5.9-5.1c2.4-1.3,4.9-2.2,7.6-2.8c2.7-0.6,5.1-0.9,7.4-0.9c0.4,0,1.2,0,2.2,0.1c1,0.1,2,0.2,3,0.3
			c1,0.1,1.7,0.2,2.1,0.2l0-6.6c0-3.4-0.8-5.7-2.5-7c-1.7-1.3-3.9-1.9-6.5-1.9c-1.5,0-3.1,0.3-4.6,0.8c-1.5,0.5-3,1.2-4.4,2
			c-1.4,0.8-2.7,1.6-3.9,2.4c-1.2,0.8-2.2,1.5-3,2h-1.8l-0.3-8.8c1.7-0.7,3.5-1.3,5.3-1.9c1.8-0.6,3.8-1.1,5.9-1.5
			c2.1-0.4,4.6-0.6,7.3-0.6c2.9,0,5.7,0.4,8.4,1.3c2.7,0.9,4.8,2.4,6.6,4.6c1.7,2.2,2.5,5.4,2.5,9.6l-0.1,24.9c0,1.1,0.4,2,1.3,2.7
			c0.9,0.7,1.9,1.1,2.9,1.1c0.6,0,1.3-0.1,2.1-0.4c0.8-0.3,1.6-0.6,2.3-0.9h0.7v3.8c-0.6,0.4-1.4,0.9-2.5,1.6
			c-1.1,0.6-2.2,1.2-3.4,1.7c-1.2,0.5-2.3,0.7-3.2,0.7c-2.8,0-4.9-0.7-6.3-2c-1.4-1.3-2.1-3.4-2.1-6.2H388c-1.6,2.3-3.5,4.1-5.5,5.3
			c-2,1.2-4,1.9-6,2.3C374.5,73.3,372.8,73.5,371.2,73.5z M375.6,67c1.9,0,4.1-0.4,6.6-1.2c2.4-0.8,4.3-2.1,5.6-3.9V48.3
			c-4.2,0-7.8,0.3-11,0.8c-3.1,0.5-5.6,1.5-7.3,2.9c-1.8,1.4-2.6,3.5-2.6,6.3c0,2.2,0.4,4,1.3,5.3c0.9,1.3,2,2.1,3.4,2.6
			C372.9,66.7,374.3,67,375.6,67z"/>
		<path class="st2" d="M451.1,60.5h1.3v5.1c-2.2,1.8-4.8,3.6-7.9,5.3c-3.1,1.7-6.7,2.6-10.8,2.6c-4.6,0-8.5-1.1-11.9-3.2
			c-3.3-2.1-5.9-5-7.7-8.7c-1.8-3.7-2.7-7.9-2.7-12.6c0-3.8,0.7-7.3,2.1-10.5c1.4-3.2,3.3-5.9,5.8-8.3s5.2-4.1,8.2-5.4
			c3.1-1.3,6.3-1.9,9.6-1.9c2.4,0,4.4,0.2,6.2,0.7c1.8,0.4,3.3,1,4.5,1.5c1.2,0.6,2.2,1.1,3,1.4l-0.3,9.1h-2
			c-1.6-0.9-3.2-1.9-4.7-2.9c-1.5-1-3.2-1.9-5-2.6c-1.8-0.7-3.9-1.1-6.4-1.1c-1.1,0-2.3,0.3-3.8,0.8c-1.4,0.6-2.6,1.3-3.4,2.2
			c-0.7,0.7-1.3,1.7-2,2.9c-0.7,1.2-1.2,2.7-1.6,4.6c-0.4,1.9-0.7,4.5-0.7,7.5c0,6.1,1.3,10.9,4,14.3c2.7,3.4,6.6,5.1,11.8,5.1
			c2,0,3.9-0.4,5.7-1.1c1.8-0.7,3.4-1.5,4.8-2.5C448.8,62.2,450,61.3,451.1,60.5z"/>
		<path class="st2" d="M458.6,94.5c-0.7,0-1.5-0.1-2.6-0.2c-1-0.1-2.1-0.2-3.1-0.4c-1-0.2-2-0.4-2.7-0.6l0.4-8.4h1.8
			c0.9,0.3,1.8,0.7,2.9,1.1c1.1,0.4,2.2,0.7,3.3,1c1.2,0.3,2.3,0.4,3.4,0.4c1.9,0,3.4-0.3,4.3-0.8c1-0.5,1.7-1.2,2.2-2
			c0.7-1.2,1.1-3.1,1.3-5.8c0.1-2.7,0.2-6.2,0.2-10.6V33.9c0-0.7-0.2-1.2-0.6-1.5c-0.4-0.4-0.8-0.6-1.4-0.8l-7.6-2.2v-3.2l18.5-2.4
			v44.4c0,5.9-0.9,10.8-2.6,14.7c-1.8,3.9-4.1,6.8-7.2,8.8C466,93.5,462.5,94.5,458.6,94.5z M473.3,14.7c-1.1,0-2.2-0.2-3.2-0.7
			s-1.8-1.1-2.4-2c-0.6-0.9-0.9-1.9-0.9-3.1c0-1.9,0.7-3.4,2-4.4c1.3-1,2.8-1.5,4.6-1.5c2,0,3.6,0.5,4.9,1.4c1.2,1,1.9,2.4,1.9,4.2
			c0,1.3-0.3,2.4-0.9,3.3c-0.6,0.9-1.4,1.6-2.4,2.1C475.7,14.5,474.6,14.7,473.3,14.7z"/>
		<path class="st2" d="M516.4,73.6c-4.7,0-8.8-1-12.3-3.1c-3.5-2-6.2-4.9-8.2-8.7c-1.9-3.8-2.9-8.3-2.9-13.5c0-4.8,1-9.1,2.9-13
			c1.9-3.8,4.7-6.9,8.2-9.1c3.6-2.2,7.8-3.4,12.7-3.4c5.3,0,9.7,1.2,13.1,3.5c3.4,2.4,6,5.4,7.7,9.3c1.7,3.8,2.5,8,2.5,12.5
			c0,4.7-1,9-2.9,12.9c-1.9,3.8-4.7,6.9-8.2,9.2S521.3,73.6,516.4,73.6z M517,68.7c2.6,0,4.8-0.6,6.5-1.8c1.7-1.2,3.1-2.8,4.1-4.7
			c1-1.9,1.7-4.1,2.1-6.4c0.4-2.3,0.6-4.5,0.6-6.7c0-3.6-0.5-7-1.4-10.2c-0.9-3.3-2.4-5.9-4.5-8c-2.1-2.1-4.8-3.1-8.3-3.1
			c-2.6,0-4.7,0.6-6.4,1.8c-1.7,1.2-3.1,2.7-4.1,4.7c-1,1.9-1.7,4-2.2,6.3c-0.4,2.3-0.7,4.5-0.7,6.6c0,2.4,0.2,4.9,0.7,7.4
			c0.5,2.5,1.2,4.8,2.3,7c1.1,2.1,2.5,3.8,4.3,5.2C512,68.1,514.3,68.7,517,68.7z"/>
	</g>
	<linearGradient id="SVGID_1_" gradientUnits="userSpaceOnUse" x1="23.2265" y1="83.4085" x2="63.4393" y2="15.6213">
		<stop  offset="0" style="stop-color:#1370B8"/>
		<stop  offset="1" style="stop-color:#36B3E8"/>
	</linearGradient>
	<path class="st1" d="M75.9,62.3l14.2-6.4v14.9c0,1.6-1.2,3.5-2.7,4.2l-11.5,5.1V62.3z M47.8,75c-1.5,0.7-2.7-0.1-2.7-1.8v-12
		c0-1.6,1.2-3.5,2.7-4.2l11.8-5.3V36.3c0-1.6,1.2-3.5,2.7-4.2l11-5c1.5-0.7,2.7,0.1,2.7,1.7v15.5l14.2-6.4V22.4
		c0-1.6-1.2-3.5-2.7-4.2L47.8,0.5c-1.5-0.7-3.9-0.7-5.4,0L2.7,18.2C1.2,18.9,0,20.7,0,22.4v48.4c0,1.6,1.2,3.5,2.7,4.2l39.6,17.7
		c1.5,0.7,3.9,0.7,5.4,0l11.7-5.2V69.7L47.8,75z"/>
</g>
</svg>
